<svg width="75" height="75" viewBox="0 0 75 75" fill="none" xmlns="http://www.w3.org/2000/svg">
<path d="M58.7344 24.0938V10.0312C58.7344 9.72045 58.6109 9.42238 58.3911 9.20261C58.1714 8.98284 57.8733 8.85938 57.5625 8.85938H27.0938C26.7829 8.85938 26.4849 8.98284 26.2651 9.20261C26.0453 9.42238 25.9219 9.72045 25.9219 10.0312V24.0938C25.9219 24.4046 26.0453 24.7026 26.2651 24.9224C26.4849 25.1422 26.7829 25.2656 27.0938 25.2656H57.5625C57.8733 25.2656 58.1714 25.1422 58.3911 24.9224C58.6109 24.7026 58.7344 24.4046 58.7344 24.0938ZM56.3906 22.9219H28.2656V11.2031H56.3906V22.9219ZM9.51562 55.7344C8.58322 55.7344 7.68901 56.1048 7.0297 56.7641C6.3704 57.4234 6 58.3176 6 59.25C6 60.1824 6.3704 61.0766 7.0297 61.7359C7.68901 62.3952 8.58322 62.7656 9.51562 62.7656H10.6875V67.4531C10.6892 69.0066 11.3071 70.4959 12.4056 71.5944C13.5041 72.6929 14.9934 73.3108 16.5469 73.3125H68.1094C68.4202 73.3125 68.7182 73.189 68.938 72.9693C69.1578 72.7495 69.2812 72.4514 69.2812 72.1406V6.51562C69.2812 6.20482 69.1578 5.90675 68.938 5.68698C68.7182 5.46722 68.4202 5.34375 68.1094 5.34375H64.5938V4.17188C64.5938 3.86107 64.4703 3.563 64.2505 3.34323C64.0307 3.12346 63.7327 3 63.4219 3H11.8594C11.5486 3 11.2505 3.12346 11.0307 3.34323C10.811 3.563 10.6875 3.86107 10.6875 4.17188V8.85938H9.51562C8.58322 8.85938 7.68901 9.22977 7.0297 9.88908C6.3704 10.5484 6 11.4426 6 12.375C6 13.3074 6.3704 14.2016 7.0297 14.8609C7.68901 15.5202 8.58322 15.8906 9.51562 15.8906H10.6875V20.5781H9.51562C8.58322 20.5781 7.68901 20.9485 7.0297 21.6078C6.3704 22.2671 6 23.1613 6 24.0938C6 25.0262 6.3704 25.9204 7.0297 26.5797C7.68901 27.239 8.58322 27.6094 9.51562 27.6094H10.6875V32.2969H9.51562C8.58322 32.2969 7.68901 32.6673 7.0297 33.3266C6.3704 33.9859 6 34.8801 6 35.8125C6 36.7449 6.3704 37.6391 7.0297 38.2984C7.68901 38.9577 8.58322 39.3281 9.51562 39.3281H10.6875V44.0156H9.51562C8.58322 44.0156 7.68901 44.386 7.0297 45.0453C6.3704 45.7046 6 46.5988 6 47.5312C6 48.4637 6.3704 49.3579 7.0297 50.0172C7.68901 50.6765 8.58322 51.0469 9.51562 51.0469H10.6875V55.7344H9.51562ZM8.34375 59.25C8.3441 58.9393 8.46768 58.6414 8.68737 58.4217C8.90706 58.202 9.20493 58.0785 9.51562 58.0781H14.2031C14.5139 58.0781 14.812 58.2016 15.0318 58.4214C15.2515 58.6411 15.375 58.9392 15.375 59.25C15.375 59.5608 15.2515 59.8589 15.0318 60.0786C14.812 60.2984 14.5139 60.4219 14.2031 60.4219H9.51562C9.20493 60.4215 8.90706 60.298 8.68737 60.0783C8.46768 59.8586 8.3441 59.5607 8.34375 59.25ZM22.4062 5.34375H62.25V66.2812H22.4062V5.34375ZM63.4219 68.625C63.7327 68.625 64.0307 68.5015 64.2505 68.2818C64.4703 68.062 64.5938 67.7639 64.5938 67.4531V7.6875H66.9375V70.9688H16.5469C15.8201 70.9678 15.1115 70.7421 14.5182 70.3224C13.9248 69.9028 13.4758 69.3099 13.2328 68.625H63.4219ZM9.51562 13.5469C9.20482 13.5469 8.90675 13.4234 8.68698 13.2036C8.46722 12.9839 8.34375 12.6858 8.34375 12.375C8.34375 12.0642 8.46722 11.7661 8.68698 11.5464C8.90675 11.3266 9.20482 11.2031 9.51562 11.2031H14.2031C14.5139 11.2031 14.812 11.3266 15.0318 11.5464C15.2515 11.7661 15.375 12.0642 15.375 12.375C15.375 12.6858 15.2515 12.9839 15.0318 13.2036C14.812 13.4234 14.5139 13.5469 14.2031 13.5469H9.51562ZM8.34375 24.0938C8.3441 23.7831 8.46768 23.4852 8.68737 23.2655C8.90706 23.0458 9.20493 22.9222 9.51562 22.9219H14.2031C14.5139 22.9219 14.812 23.0453 15.0318 23.2651C15.2515 23.4849 15.375 23.7829 15.375 24.0938C15.375 24.4046 15.2515 24.7026 15.0318 24.9224C14.812 25.1422 14.5139 25.2656 14.2031 25.2656H9.51562C9.20493 25.2653 8.90706 25.1417 8.68737 24.922C8.46768 24.7023 8.3441 24.4044 8.34375 24.0938ZM8.34375 35.8125C8.3441 35.5018 8.46768 35.2039 8.68737 34.9842C8.90706 34.7646 9.20493 34.641 9.51562 34.6406H14.2031C14.5139 34.6406 14.812 34.7641 15.0318 34.9839C15.2515 35.2036 15.375 35.5017 15.375 35.8125C15.375 36.1233 15.2515 36.4214 15.0318 36.6411C14.812 36.8609 14.5139 36.9844 14.2031 36.9844H9.51562C9.20493 36.984 8.90706 36.8604 8.68737 36.6408C8.46768 36.4211 8.3441 36.1232 8.34375 35.8125ZM8.34375 47.5312C8.3441 47.2206 8.46768 46.9227 8.68737 46.703C8.90706 46.4833 9.20493 46.3597 9.51562 46.3594H14.2031C14.5139 46.3594 14.812 46.4828 15.0318 46.7026C15.2515 46.9224 15.375 47.2204 15.375 47.5312C15.375 47.8421 15.2515 48.1401 15.0318 48.3599C14.812 48.5797 14.5139 48.7031 14.2031 48.7031H9.51562C9.20493 48.7028 8.90706 48.5792 8.68737 48.3595C8.46768 48.1398 8.3441 47.8419 8.34375 47.5312ZM13.0312 51.0469H14.2031C15.1355 51.0469 16.0297 50.6765 16.689 50.0172C17.3484 49.3579 17.7188 48.4637 17.7188 47.5312C17.7188 46.5988 17.3484 45.7046 16.689 45.0453C16.0297 44.386 15.1355 44.0156 14.2031 44.0156H13.0312V39.3281H14.2031C15.1355 39.3281 16.0297 38.9577 16.689 38.2984C17.3484 37.6391 17.7188 36.7449 17.7188 35.8125C17.7188 34.8801 17.3484 33.9859 16.689 33.3266C16.0297 32.6673 15.1355 32.2969 14.2031 32.2969H13.0312V27.6094H14.2031C15.1355 27.6094 16.0297 27.239 16.689 26.5797C17.3484 25.9204 17.7188 25.0262 17.7188 24.0938C17.7188 23.1613 17.3484 22.2671 16.689 21.6078C16.0297 20.9485 15.1355 20.5781 14.2031 20.5781H13.0312V15.8906H14.2031C15.1355 15.8906 16.0297 15.5202 16.689 14.8609C17.3484 14.2016 17.7188 13.3074 17.7188 12.375C17.7188 11.4426 17.3484 10.5484 16.689 9.88908C16.0297 9.22977 15.1355 8.85938 14.2031 8.85938H13.0312V5.34375H20.0625V66.2812H13.0312V62.7656H14.2031C15.1355 62.7656 16.0297 62.3952 16.689 61.7359C17.3484 61.0766 17.7188 60.1824 17.7188 59.25C17.7188 58.3176 17.3484 57.4234 16.689 56.7641C16.0297 56.1048 15.1355 55.7344 14.2031 55.7344H13.0312V51.0469ZM48.1875 61.5938C48.1875 61.9046 48.064 62.2026 47.8443 62.4224C47.6245 62.6422 47.3264 62.7656 47.0156 62.7656H44.6719C44.3611 62.7656 44.063 62.6422 43.8432 62.4224C43.6235 62.2026 43.5 61.9046 43.5 61.5938C43.5 61.2829 43.6235 60.9849 43.8432 60.7651C44.063 60.5453 44.3611 60.4219 44.6719 60.4219H47.0156C47.3264 60.4219 47.6245 60.5453 47.8443 60.7651C48.064 60.9849 48.1875 61.2829 48.1875 61.5938ZM48.1875 56.9062C48.1875 57.2171 48.064 57.5151 47.8443 57.7349C47.6245 57.9547 47.3264 58.0781 47.0156 58.0781H44.6719C44.3611 58.0781 44.063 57.9547 43.8432 57.7349C43.6235 57.5151 43.5 57.2171 43.5 56.9062C43.5 56.5954 43.6235 56.2974 43.8432 56.0776C44.063 55.8578 44.3611 55.7344 44.6719 55.7344H47.0156C47.3264 55.7344 47.6245 55.8578 47.8443 56.0776C48.064 56.2974 48.1875 56.5954 48.1875 56.9062ZM59.9062 61.5938C59.9062 61.9046 59.7828 62.2026 59.563 62.4224C59.3432 62.6422 59.0452 62.7656 58.7344 62.7656H51.7031C51.3923 62.7656 51.0943 62.6422 50.8745 62.4224C50.6547 62.2026 50.5312 61.9046 50.5312 61.5938C50.5312 61.2829 50.6547 60.9849 50.8745 60.7651C51.0943 60.5453 51.3923 60.4219 51.7031 60.4219H58.7344C59.0452 60.4219 59.3432 60.5453 59.563 60.7651C59.7828 60.9849 59.9062 61.2829 59.9062 61.5938ZM59.9062 56.9062C59.9062 57.2171 59.7828 57.5151 59.563 57.7349C59.3432 57.9547 59.0452 58.0781 58.7344 58.0781H51.7031C51.3923 58.0781 51.0943 57.9547 50.8745 57.7349C50.6547 57.5151 50.5312 57.2171 50.5312 56.9062C50.5312 56.5954 50.6547 56.2974 50.8745 56.0776C51.0943 55.8578 51.3923 55.7344 51.7031 55.7344H58.7344C59.0452 55.7344 59.3432 55.8578 59.563 56.0776C59.7828 56.2974 59.9062 56.5954 59.9062 56.9062Z" fill="#B3C134"/>
</svg>
