<svg width="12" height="12" viewBox="0 0 12 12" fill="none" xmlns="http://www.w3.org/2000/svg">
<path d="M11.6569 1.64053C11.4803 1.46369 11.1939 1.46338 11.0174 1.63978L5.59177 7.05107L3.63422 4.92499C3.46507 4.74138 3.17908 4.72947 2.99517 4.8986C2.8114 5.06774 2.79963 5.35387 2.96878 5.53764L5.24517 8.00985C5.32854 8.10046 5.44521 8.15308 5.56823 8.15564C5.57154 8.15578 5.57473 8.15578 5.57789 8.15578C5.69745 8.15578 5.81245 8.10829 5.89718 8.02387L11.656 2.28016C11.833 2.10379 11.8333 1.81736 11.6569 1.64053Z" fill="#002B45"/>
<path d="M11.5477 5.54773C11.2979 5.54773 11.0955 5.75018 11.0955 6C11.0955 8.80976 8.80976 11.0955 6 11.0955C3.19041 11.0955 0.904523 8.80976 0.904523 6C0.904523 3.19041 3.19041 0.904523 6 0.904523C6.2498 0.904523 6.45227 0.70207 6.45227 0.452273C6.45227 0.202453 6.2498 0 6 0C2.69156 0 0 2.69156 0 6C0 9.3083 2.69156 12 6 12C9.3083 12 12 9.3083 12 6C12 5.7502 11.7975 5.54773 11.5477 5.54773Z" fill="#002B45"/>
</svg>
