<svg width="13" height="21" viewBox="0 0 13 21" fill="none" xmlns="http://www.w3.org/2000/svg">
<path fill-rule="evenodd" clip-rule="evenodd" d="M9.30255 19.5025C9.30255 20.3296 8.61338 21 7.76324 21H4.36445C3.51432 21 2.82514 20.3296 2.82514 19.5025V12.8118H1.53931C0.689172 12.8118 0 12.1414 0 11.3143V8.11072C0 7.28369 0.689172 6.61325 1.53931 6.61325H2.81899V5.75968C2.81899 4.08159 3.35478 2.6093 4.45163 1.55642C5.5426 0.509189 7.01989 0.0389896 8.585 0.0383276C8.75878 0.0376103 8.98743 0.0309404 9.24727 0.0233602C9.96798 0.0023358 10.9287 -0.0256912 11.6247 0.0468683C12.4069 0.128413 13 0.770551 13 1.53582V4.51878C13 5.34581 12.3108 6.01625 11.4607 6.01625H9.39183C9.35968 6.01625 9.33015 6.0168 9.3031 6.01777C9.30274 6.03615 9.30255 6.0556 9.30255 6.07615V6.61924H11.0225C11.4648 6.61924 11.8858 6.80435 12.178 7.12738C12.4702 7.45041 12.6055 7.88012 12.5493 8.30695L12.1275 11.5106C12.0291 12.2579 11.3752 12.8178 10.6007 12.8178H9.30255V19.5025ZM8.58831 1.5358C6.08027 1.5358 4.35829 3.02529 4.35829 5.75968V8.11072H1.53931V11.3143H4.36445V19.5025H7.76324V11.3203H10.6007L11.0225 8.11671H7.76324V6.07615C7.76324 5.15171 8.028 4.51878 9.39183 4.51878H11.4607V1.53582C10.8767 1.47493 10.1262 1.49707 9.43885 1.51735C9.13661 1.52627 8.84659 1.53483 8.58831 1.5358Z" fill="#B3C134"/>
</svg>
