<svg width="71" height="71" viewBox="0 0 71 71" fill="none" xmlns="http://www.w3.org/2000/svg">
<path d="M43.784 8.28332V3.54999C43.784 2.243 42.7243 1.18332 41.4173 1.18332H29.584C28.277 1.18332 27.2173 2.243 27.2173 3.54999V8.28332H43.784Z" fill="#E4EE8F"/>
<path d="M51.1445 34.3167C52.4318 32.9115 52.3642 30.7355 50.9914 29.4129C51.0884 29.3071 51.1786 29.1956 51.2612 29.0783C51.9095 28.0337 51.965 26.7267 51.408 25.6312C51.3745 25.5647 51.3346 25.5018 51.2901 25.4428L41.6622 12.9329C41.5033 12.7255 41.4172 12.4718 41.4172 12.2106V9.46667H43.7839C44.4374 9.46667 44.9672 8.93682 44.9672 8.28333V3.55C44.9672 1.58953 43.3777 0 41.4172 0H29.5839C27.6234 0 26.0339 1.58953 26.0339 3.55V8.28333C26.0339 8.93682 26.5638 9.46667 27.2172 9.46667H29.5839V12.2106C29.5839 12.4724 29.4978 12.7266 29.3378 12.934L19.7116 25.4417C19.6666 25.5006 19.6273 25.5636 19.5932 25.63C19.0362 26.7255 19.0922 28.0325 19.7399 29.0766C19.8226 29.1939 19.9127 29.306 20.0098 29.4117C18.6363 30.7343 18.5682 32.9109 19.8572 34.3167C18.6265 35.6543 18.6265 37.7124 19.8572 39.05C18.6265 40.3876 18.6265 42.4457 19.8572 43.7833C19.2661 44.4305 18.9368 45.2741 18.9339 46.15V65.0833C18.938 68.3496 21.5849 70.9959 24.8506 71H46.1506C49.4169 70.9959 52.0632 68.3496 52.0672 65.0833V46.15C52.0644 45.2741 51.735 44.4305 51.1445 43.7833C52.3752 42.4457 52.3752 40.3876 51.1445 39.05C52.3752 37.7124 52.3752 35.6543 51.1445 34.3167ZM49.7006 41.4167C49.7006 42.0702 49.1707 42.6 48.5172 42.6H22.4839C21.8304 42.6 21.3006 42.0702 21.3006 41.4167C21.3006 40.7632 21.8304 40.2333 22.4839 40.2333H48.5172C49.1707 40.2333 49.7006 40.7632 49.7006 41.4167ZM22.4839 37.8667C21.8304 37.8667 21.3006 37.3368 21.3006 36.6833C21.3006 36.0298 21.8304 35.5 22.4839 35.5H48.5172C49.1707 35.5 49.7006 36.0298 49.7006 36.6833C49.7006 37.3368 49.1707 37.8667 48.5172 37.8667H22.4839ZM21.3006 31.95C21.3006 31.2965 21.8304 30.7667 22.4839 30.7667H48.5172C49.1707 30.7667 49.7006 31.2965 49.7006 31.95C49.7006 32.6035 49.1707 33.1333 48.5172 33.1333H22.4839C21.8304 33.1333 21.3006 32.6035 21.3006 31.95ZM28.4006 3.55C28.4006 2.89651 28.9304 2.36667 29.5839 2.36667H41.4172C42.0707 2.36667 42.6006 2.89651 42.6006 3.55V7.1H28.4006V3.55ZM21.6675 26.7822L31.2133 14.3762C31.6906 13.7551 31.9494 12.9941 31.9506 12.2106V9.46667H39.0506V12.2106C39.0517 12.9936 39.3106 13.7539 39.7867 14.3751L49.3337 26.7822C49.477 27.1271 49.4452 27.52 49.2476 27.8366C49.0326 28.1903 48.6472 28.404 48.2335 28.4H22.7682C22.3545 28.404 21.9691 28.1903 21.7541 27.8366C21.5565 27.52 21.5242 27.1271 21.6675 26.7822ZM49.7006 65.0833C49.7006 67.0438 48.111 68.6333 46.1506 68.6333H24.8506C22.8901 68.6333 21.3006 67.0438 21.3006 65.0833V46.15C21.3006 45.4965 21.8304 44.9667 22.4839 44.9667H48.5172C49.1707 44.9667 49.7006 45.4965 49.7006 46.15V65.0833Z" fill="#B3C134"/>
<path d="M46.1506 55.6167C45.4971 55.6167 44.9673 56.1465 44.9673 56.8V62.7167C44.9673 63.3702 44.4374 63.9 43.7839 63.9H36.6839C36.0305 63.9 35.5006 64.4299 35.5006 65.0834C35.5006 65.7369 36.0305 66.2667 36.6839 66.2667H43.7839C45.7444 66.2667 47.334 64.6772 47.334 62.7167V56.8C47.334 56.1465 46.8041 55.6167 46.1506 55.6167Z" fill="#B3C134"/>
</svg>
