<svg width="76" height="76" viewBox="0 0 76 76" fill="none" xmlns="http://www.w3.org/2000/svg">
<g clip-path="url(#clip0)">
<path d="M74.8847 38.8011H60.6188C64.2625 35.3207 65.9147 31.6167 65.416 27.9707C64.7916 23.4049 61.5759 21.5266 58.7749 21.2913C56.2773 21.0808 53.9447 22.0204 52.558 23.6488C52.0064 23.0039 51.296 22.4593 50.4585 22.0498C48.5714 21.127 46.283 21.0101 44.3365 21.737C43.7595 21.9526 43.4664 22.5952 43.682 23.1723C43.8976 23.7494 44.5405 24.0424 45.1173 23.8269C46.5009 23.3099 48.1312 23.3949 49.4784 24.0538C50.4959 24.5516 51.212 25.3221 51.4945 26.2239C51.6402 26.6891 52.0713 27.0058 52.5589 27.0058C53.0465 27.0058 53.4776 26.6892 53.6234 26.2239C54.1674 24.4871 56.3038 23.3228 58.588 23.5143C59.7946 23.6157 62.6599 24.2823 63.2057 28.273C63.7943 32.5765 60.3428 36.3365 57.2118 38.8013H54.0059H47.906C44.775 36.3366 41.3235 32.5767 41.9121 28.273C42.012 27.5426 42.2005 26.878 42.4727 26.2981C42.7343 25.7404 42.4944 25.0763 41.9367 24.8146C41.3787 24.5532 40.7148 24.7928 40.4531 25.3507C40.0851 26.1351 39.8323 27.0168 39.702 27.971C39.2034 31.617 40.8556 35.321 44.4992 38.8014H28.0776L29.5324 33.5222C29.9137 32.1386 29.0984 30.7025 27.7151 30.321L22.7457 28.9505C21.4043 28.5511 19.8889 29.4118 19.5449 30.7684L18.3423 35.1325C17.4947 34.8375 16.2699 34.4581 14.9168 34.1895C11.3645 33.4845 8.7648 33.892 7.18988 35.4004C5.65875 36.8673 5.6295 39.3894 7.10275 42.8969C7.83306 44.6354 8.74461 46.1697 9.19794 46.8926L7.7434 52.1829C6.98311 52.5714 5.41471 53.4207 3.89724 54.538C0.834081 56.7937 -0.433278 58.9742 0.130191 61.0189C0.709839 63.1214 2.73334 64.8038 6.14488 66.0192C7.44475 66.4823 8.69103 66.7843 9.57007 66.9653L8.36728 71.3298C7.98595 72.7136 8.80117 74.1496 10.1846 74.5311L15.1538 75.9014C16.4904 76.3021 18.0126 75.4399 18.3548 74.0837L20.0253 68.0216C20.189 67.4277 19.8402 66.8136 19.2463 66.6499C18.6522 66.4863 18.0381 66.835 17.8746 67.4289L16.204 73.491C16.0992 73.7285 16.0044 73.7822 15.7469 73.7509L10.7776 72.3805C10.5799 72.326 10.4634 72.1204 10.518 71.9224L14.9486 55.8448L20.6346 57.4129L19.0876 63.0267C18.9239 63.6206 19.2727 64.2347 19.8666 64.3984C20.4606 64.5618 21.0747 64.2133 21.2383 63.6194L25.525 48.0638V72.6487C25.525 74.4941 27.0263 75.9952 28.8717 75.9952H72.6533C74.4987 75.9952 76 74.4939 76 72.6487V39.9166C76 39.3006 75.5007 38.8011 74.8847 38.8011ZM8.73333 37.0113C9.99609 35.8013 12.5387 35.9951 14.4489 36.3707C15.7636 36.6292 16.9676 37.0124 17.7481 37.289L15.1135 46.8494L11.1079 45.7449C9.26355 42.8754 7.33772 38.3481 8.73333 37.0113ZM11.1852 48.0799L14.5179 48.9989L13.3903 53.0999L10.0575 52.181L11.1852 48.0799ZM2.2809 60.4261C2.00139 59.412 3.06436 57.9268 5.19711 56.3513C6.61453 55.3044 8.12578 54.4927 8.80072 54.1485L12.7981 55.251L10.1631 64.8131C7.62525 64.3058 2.96119 62.8944 2.2809 60.4261ZM15.83 52.6466L16.6725 49.5893L22.3586 51.1573L21.2273 55.2624L15.5413 53.6943L15.83 52.6466ZM17.2651 47.4387L21.6956 31.3608C21.8004 31.1233 21.8954 31.0694 22.1527 31.1008L27.1219 32.4711C27.3196 32.5256 27.4362 32.7312 27.3815 32.9292L22.951 49.0066L17.2651 47.4387ZM27.7559 72.6489V41.032H46.4038V73.7647H28.8717C28.2564 73.7647 27.7559 73.2641 27.7559 72.6489ZM73.7691 72.6489C73.7691 73.2641 73.2685 73.7647 72.6533 73.7647H55.1214V55.9443C55.1214 55.3283 54.622 54.8289 54.006 54.8289C53.39 54.8289 52.8907 55.3283 52.8907 55.9443V73.7645H48.6348V41.032H52.8907V51.4829C52.8907 52.0989 53.39 52.5982 54.006 52.5982C54.622 52.5982 55.1214 52.0989 55.1214 51.4829V41.032H73.7693V72.6489H73.7691Z" fill="#B3C134"/>
<path d="M47.5565 12.8314C47.8645 12.9811 48.2242 12.9811 48.5322 12.8314C48.835 12.6841 55.9386 9.16496 55.2232 3.93298C54.8574 1.25769 52.9579 0.15584 51.3022 0.0167543C50.0563 -0.0873004 48.8789 0.30027 48.0444 1.01411C47.2098 0.300121 46.0312 -0.0873004 44.7865 0.0167543C43.1308 0.155989 41.2314 1.25784 40.8655 3.93298C40.1501 9.16481 47.2537 12.6841 47.5565 12.8314ZM43.0756 4.2352C43.2967 2.61916 44.3593 2.29126 44.9733 2.23975C45.0424 2.23382 45.1114 2.231 45.1799 2.231C46.0229 2.231 46.791 2.66132 46.9798 3.26412C47.1256 3.72933 47.5567 4.04609 48.0443 4.04609C48.5319 4.04609 48.963 3.72947 49.1087 3.26412C49.3128 2.61233 50.1944 2.16212 51.1152 2.23961C51.7291 2.29126 52.7919 2.61901 53.0129 4.23505C53.3892 6.98708 49.9137 9.53012 48.0443 10.5692C46.174 9.52952 42.6993 6.98693 43.0756 4.2352Z" fill="#B3C134"/>
<path d="M65.9636 19.0894C66.2716 19.2391 66.6312 19.2391 66.9392 19.0894C67.2333 18.9463 74.1337 15.5277 73.4375 10.4366C73.0804 7.82562 71.2255 6.75019 69.6086 6.61437C68.4052 6.51314 67.2651 6.88423 66.4515 7.56898C65.6379 6.88423 64.4977 6.51344 63.2941 6.61437C61.6773 6.75019 59.8224 7.82577 59.4654 10.4368C58.7691 15.5277 65.6695 18.9463 65.9636 19.0894ZM61.6755 10.739C61.8861 9.19882 62.8971 8.88636 63.4809 8.83737C63.5471 8.83188 63.6131 8.82906 63.6787 8.82906C64.4796 8.82906 65.2088 9.23519 65.387 9.80459C65.5328 10.2698 65.9639 10.5866 66.4515 10.5866C66.9391 10.5866 67.3702 10.2698 67.5159 9.80459C67.7089 9.18858 68.5477 8.76494 69.4219 8.83737C70.0057 8.88636 71.0167 9.19867 71.2275 10.739C71.5879 13.3758 68.2586 15.8188 66.4515 16.8267C64.6437 15.8182 61.3151 13.3756 61.6755 10.739Z" fill="#B3C134"/>
<path d="M31.7273 25.4701C32.0352 25.6199 32.3951 25.6199 32.703 25.4701C32.997 25.327 39.8976 21.9085 39.2013 16.8175C38.8443 14.2065 36.9893 13.1311 35.3725 12.9951C34.1703 12.8945 33.029 13.265 32.2152 13.9497C31.4016 13.265 30.2618 12.8939 29.0578 12.9951C27.441 13.1309 25.5862 14.2065 25.2292 16.8175C24.5327 21.9085 31.4331 25.327 31.7273 25.4701ZM27.4391 17.1197C27.6497 15.5794 28.6606 15.2671 29.2444 15.2181C29.3106 15.2126 29.3765 15.2098 29.4421 15.2098C30.2432 15.2098 30.9722 15.6159 31.1505 16.1853C31.2962 16.6505 31.7273 16.9673 32.2149 16.9673C32.7025 16.9673 33.1336 16.6507 33.2794 16.1853C33.4723 15.5695 34.3101 15.1454 35.1855 15.2181C35.7693 15.2672 36.7803 15.5794 36.9909 17.1197C37.3516 19.7566 34.022 22.1996 32.2151 23.2075C30.4073 22.1988 27.0785 19.7563 27.4391 17.1197Z" fill="#B3C134"/>
</g>
<defs>
<clipPath id="clip0">
<rect width="76" height="76" fill="white"/>
</clipPath>
</defs>
</svg>
