<svg width="18" height="18" viewBox="0 0 18 18" fill="none" xmlns="http://www.w3.org/2000/svg">
<path d="M9.00242 4.38213C11.5578 4.38213 13.6202 6.44452 13.6202 9C13.6202 11.5555 11.5578 13.6179 9.00242 13.6179C6.44699 13.6179 4.38463 11.5555 4.38463 9C4.38463 6.44452 6.44699 4.38213 9.00242 4.38213ZM9.00242 12.0013C10.655 12.0013 12.0036 10.6526 12.0036 9C12.0036 7.34738 10.655 5.99872 9.00242 5.99872C7.34983 5.99872 6.0012 7.34738 6.0012 9C6.0012 10.6526 7.34983 12.0013 9.00242 12.0013ZM4.19551 3.11678C4.79215 3.11678 5.27397 3.5986 5.27397 4.19525C5.27397 4.79191 4.79215 5.27373 4.19551 5.27373C3.59887 5.27373 3.11705 4.79416 3.11705 4.19525C3.11687 4.05358 3.14465 3.91325 3.19878 3.78233C3.25292 3.6514 3.33235 3.53244 3.43253 3.43226C3.53271 3.33208 3.65167 3.25264 3.78259 3.19851C3.91352 3.14437 4.05383 3.1166 4.19551 3.11678ZM0.00100327 9C0.00100327 7.75716 -0.0102539 6.52558 0.0595417 5.28499C0.129337 3.84402 0.458054 2.56515 1.51175 1.51144C2.56769 0.455477 3.84428 0.129006 5.28523 0.0592092C6.52804 -0.0105879 7.7596 0.000669702 9.00017 0.000669702C10.243 0.000669702 11.4745 -0.0105879 12.7151 0.0592092C14.1561 0.129006 15.4349 0.457728 16.4886 1.51144C17.5445 2.5674 17.871 3.84402 17.9408 5.28499C18.0106 6.52783 17.9993 7.75941 17.9993 9C17.9993 10.2406 18.0106 11.4744 17.9408 12.715C17.871 14.156 17.5423 15.4348 16.4886 16.4886C15.4326 17.5445 14.1561 17.871 12.7151 17.9408C11.4723 18.0106 10.2407 17.9993 9.00017 17.9993C7.75735 17.9993 6.52579 18.0106 5.28523 17.9408C3.84428 17.871 2.56544 17.5423 1.51175 16.4886C0.455803 15.4326 0.129337 14.156 0.0595417 12.715C-0.0125065 11.4744 0.00100327 10.2428 0.00100327 9ZM1.98231 14.3091C2.14666 14.7189 2.34479 15.0251 2.66225 15.3403C2.97971 15.6577 3.28366 15.8559 3.69343 16.0202C4.87771 16.4908 7.68981 16.385 9.00242 16.385C10.315 16.385 13.1294 16.4908 14.3137 16.0225C14.7234 15.8581 15.0296 15.66 15.3448 15.3425C15.6623 15.0251 15.8604 14.7211 16.0248 14.3113C16.4931 13.1248 16.3873 10.3126 16.3873 9C16.3873 7.68736 16.4931 4.87296 16.0248 3.68866C15.8604 3.27888 15.6623 2.97268 15.3448 2.65746C15.0274 2.34225 14.7234 2.14187 14.3137 1.97751C13.1294 1.50919 10.315 1.61501 9.00242 1.61501C7.68981 1.61501 4.87546 1.50919 3.69118 1.97751C3.28141 2.14187 2.97521 2.34 2.66 2.65746C2.34254 2.97493 2.14441 3.27888 1.98005 3.68866C1.51175 4.87296 1.61757 7.68736 1.61757 9C1.61757 10.3126 1.51175 13.1248 1.98231 14.3091Z" fill="#B3C134"/>
</svg>
