<svg width="17" height="18" viewBox="0 0 17 18" fill="none" xmlns="http://www.w3.org/2000/svg">
<path fill-rule="evenodd" clip-rule="evenodd" d="M1.65405 18C0.892797 18 0.275676 17.3638 0.275676 16.5789V6.06316C0.275676 5.68091 0.42207 5.3339 0.660209 5.07849C0.246672 4.54429 0 3.86614 0 3.12632C0 1.39412 1.35226 0 3.03243 0C4.71261 0 6.06487 1.39412 6.06487 3.12632C6.06487 3.79621 5.86262 4.41554 5.51737 4.92323C5.74708 4.74664 6.03197 4.64211 6.34054 4.64211H9.0973C9.46209 4.64211 9.79378 4.7882 10.0403 5.02673C11.0025 4.5993 12.0985 4.47363 13.0959 4.66644C14.1166 4.86374 15.1206 5.40111 15.8623 6.36328C16.6043 7.32599 17 8.60428 17 10.1368V16.5789C17 17.3638 16.3829 18 15.6216 18H12.8649C12.1036 18 11.4865 17.3638 11.4865 16.5789V11.1789C11.4865 10.6635 11.3409 10.4429 11.2713 10.3665C11.1986 10.2866 11.1112 10.2524 11.0147 10.2548C10.9138 10.2574 10.7965 10.302 10.6979 10.4119C10.6077 10.5125 10.4757 10.7348 10.4757 11.1789V16.5789C10.4757 17.3638 9.85855 18 9.0973 18H6.34054C5.96487 18 5.62431 17.8451 5.37568 17.5938C5.12705 17.8451 4.78648 18 4.41081 18H1.65405ZM1.65405 6.06316V16.5789H4.41081V6.06316H1.65405ZM3.79531 4.64211C4.32643 4.35953 4.68649 3.78933 4.68649 3.12632C4.68649 2.17895 3.95135 1.42105 3.03243 1.42105C2.11351 1.42105 1.37838 2.17895 1.37838 3.12632C1.37838 3.78933 1.73843 4.35953 2.26956 4.64211C2.49735 4.7633 2.75661 4.83158 3.03243 4.83158C3.30825 4.83158 3.56751 4.7633 3.79531 4.64211ZM10.4757 6.38374C9.88438 6.6731 9.38916 7.11488 9.0973 7.67368V6.06316H6.34054V16.5789H9.0973V11.1789C9.0973 8.14737 12.8649 7.95789 12.8649 11.1789V16.5789H15.6216V10.1368C15.6216 6.18164 12.4908 5.39761 10.4757 6.38374Z" fill="#B3C134"/>
</svg>
