<svg width="75" height="75" viewBox="0 0 75 75" fill="none" xmlns="http://www.w3.org/2000/svg">
<g clip-path="url(#clip0)">
<path d="M33.6552 6.65405C34.2861 6.65405 34.7975 6.14263 34.7975 5.51176C34.7975 4.88089 34.2861 4.36948 33.6552 4.36948C33.0244 4.36948 32.5129 4.88089 32.5129 5.51176C32.5129 6.14263 33.0244 6.65405 33.6552 6.65405Z" fill="#B3C134"/>
<path d="M18.7011 24.0659H48.6095C49.2162 24.0659 49.7081 23.5742 49.7081 22.9673C49.7081 22.3604 49.2162 21.8687 48.6095 21.8687H18.7011C18.0943 21.8687 17.6024 22.3604 17.6024 22.9673C17.6024 23.5742 18.0943 24.0659 18.7011 24.0659Z" fill="#B3C134"/>
<path d="M18.7011 30.9841H48.6095C49.2162 30.9841 49.7081 30.4923 49.7081 29.8854C49.7081 29.2786 49.2162 28.7868 48.6095 28.7868H18.7011C18.0943 28.7868 17.6024 29.2786 17.6024 29.8854C17.6024 30.4923 18.0943 30.9841 18.7011 30.9841Z" fill="#B3C134"/>
<path d="M18.7011 37.9023H35.2046C35.8113 37.9023 36.3032 37.4105 36.3032 36.8036C36.3032 36.1967 35.8113 35.705 35.2046 35.705H18.7011C18.0943 35.705 17.6024 36.1967 17.6024 36.8036C17.6024 37.4105 18.0943 37.9023 18.7011 37.9023Z" fill="#B3C134"/>
<path d="M30.7848 43.722C30.7848 43.1151 30.2929 42.6233 29.6862 42.6233H18.701C18.0943 42.6233 17.6024 43.1151 17.6024 43.722C17.6024 44.3288 18.0943 44.8206 18.701 44.8206H29.6862C30.2929 44.8206 30.7848 44.3287 30.7848 43.722Z" fill="#B3C134"/>
<path d="M47.1896 59.5639C46.6703 59.2498 45.9948 59.4167 45.6811 59.9358C45.3671 60.4551 45.5337 61.1306 46.053 61.4445C47.3095 62.204 48.1688 62.4344 49.2693 62.4945V62.8412C49.2693 63.4481 49.7612 63.9398 50.368 63.9398C50.9747 63.9398 51.4666 63.4481 51.4666 62.8412V62.3793C53.4554 61.9286 54.8778 60.3526 55.1622 58.5297C55.487 56.4483 54.3012 54.6476 52.1413 53.9423C51.9055 53.8652 51.6818 53.7951 51.4666 53.7284V49.7298C52.027 49.9419 52.3729 50.2239 52.4069 50.2523C52.8646 50.6449 53.5541 50.5954 53.9507 50.1395C54.349 49.6819 54.3009 48.988 53.8433 48.5896C53.7857 48.5395 52.8837 47.7719 51.4664 47.4432V46.9812C51.4664 46.3743 50.9746 45.8826 50.3678 45.8826C49.7611 45.8826 49.2692 46.3743 49.2692 46.9812V47.3728C47.2703 47.7051 45.9932 49.1158 45.6887 50.787C45.2448 53.2222 46.9328 54.4818 49.2692 55.3279V60.2935C48.5057 60.2389 48.0179 60.0647 47.1896 59.5639ZM52.9912 58.1909C52.8478 59.1104 52.2194 59.7403 51.4666 60.0633V56.0333C53.064 56.5589 53.0652 57.7169 52.9912 58.1909ZM47.8505 51.1809C47.9539 50.6134 48.3819 49.8652 49.2482 49.6241C49.2553 49.6222 49.2622 49.6207 49.2693 49.6188V52.9535C48.3091 52.4943 47.6738 52.1489 47.8505 51.1809Z" fill="#B3C134"/>
<path d="M67.5573 49.9682C67.1754 48.6362 66.6384 47.3527 65.9566 46.1423C66.8234 44.6208 66.5812 42.6989 65.3185 41.4359L63.8364 39.9539C63.5184 39.6359 63.1585 39.3829 62.7738 39.1959V11.7375C62.7738 8.83828 60.4151 6.47944 57.5159 6.47944C56.7404 6.47944 40.0717 6.47944 39.2451 6.47944V5.58984C39.2451 2.50752 36.7375 0 33.6552 0C30.5729 0 28.0654 2.50752 28.0654 5.58984V6.47944C27.2316 6.47944 10.5598 6.47944 9.79453 6.47944C6.89531 6.47944 4.53662 8.83828 4.53662 11.7375V69.7422C4.53662 72.6415 6.89531 75.0001 9.79453 75.0001H57.5158C60.0825 75.0001 62.2576 73.1101 62.693 70.649C63.1078 70.4587 63.4963 70.1953 63.8363 69.8553L65.3184 68.3732C66.5811 67.1105 66.8232 65.1886 65.9565 63.6671C66.6381 62.4568 67.1751 61.1735 67.5571 59.8412C69.1985 59.602 70.4631 58.1852 70.4631 56.4787V53.331C70.4632 51.6242 69.1986 50.2074 67.5573 49.9682ZM28.3043 8.67671C29.3842 8.67671 30.2628 7.79824 30.2628 6.71836V5.58984C30.2628 3.71909 31.7846 2.19727 33.6554 2.19727C35.5261 2.19727 37.0479 3.71924 37.0479 5.58984V6.71836C37.0479 7.79824 37.9266 8.67671 39.0064 8.67671H44.6534V13.101C44.6534 13.3165 44.4782 13.4916 44.2627 13.4916H23.048C22.8325 13.4916 22.6573 13.3165 22.6573 13.101V8.67671H28.3043ZM6.73403 69.7421V11.7375C6.73403 10.0499 8.10703 8.67671 9.79468 8.67671H11.0977V64.8453C11.0977 66.6609 12.5747 68.1379 14.3903 68.1379H30.5654C31.1722 68.1379 31.6641 67.6462 31.6641 67.0393C31.6641 66.4324 31.1722 65.9407 30.5654 65.9407H14.3902C13.7861 65.9407 13.2948 65.4494 13.2948 64.8453V8.67671H20.4601V13.101C20.4601 14.5279 21.6209 15.6889 23.048 15.6889H44.2626C45.6896 15.6889 46.8505 14.5279 46.8505 13.101V8.67671H54.0158V32.8119C54.0158 33.4188 54.5077 33.9105 55.1144 33.9105C55.7212 33.9105 56.2131 33.4188 56.2131 32.8119V8.67671H57.5161C59.2037 8.67671 60.5767 10.0497 60.5767 11.7375V38.8351C60.0776 38.898 59.5859 39.0562 59.1302 39.3158C57.9201 38.6342 56.6366 38.0972 55.3041 37.7152C55.0651 36.0738 53.6483 34.8092 51.9416 34.8092H48.7939C47.0874 34.8092 45.6706 36.0738 45.4314 37.7152C44.099 38.0972 42.8153 38.6342 41.6054 39.3158C40.084 38.4492 38.162 38.6912 36.8991 39.9539L35.4168 41.436C34.1541 42.6989 33.912 44.6208 34.7788 46.1423C34.097 47.3527 33.56 48.6362 33.1781 49.9682C31.5368 50.2074 30.2722 51.6242 30.2722 53.3307V56.4784C30.2722 58.1849 31.5368 59.6017 33.1781 59.8409C33.56 61.1729 34.0969 62.4564 34.7788 63.6668C33.912 65.1882 34.1541 67.1102 35.4168 68.373L36.899 69.855C38.1617 71.1179 40.0835 71.3603 41.6052 70.4931C42.8156 71.1749 44.0991 71.7119 45.4312 72.0939C45.4671 72.3401 45.5323 72.5763 45.6183 72.8026H9.79468C8.10703 72.8027 6.73403 71.4297 6.73403 69.7421ZM57.5159 72.8027H55.1171C55.2029 72.5766 55.2683 72.3403 55.3041 72.094C56.6363 71.7122 57.9198 71.1751 59.1302 70.4934C59.51 70.7098 59.9149 70.857 60.3281 70.9365C59.8579 72.0296 58.7676 72.8027 57.5159 72.8027ZM68.266 56.4785C68.266 57.1406 67.7272 57.6792 67.0651 57.6792C66.3517 57.6792 65.7281 58.1635 65.5485 58.8564C65.182 60.2685 64.6181 61.6229 63.8723 62.8822C63.5559 63.4167 63.5862 64.0919 63.9496 64.6017C64.4396 65.2893 64.3619 66.2221 63.7646 66.8194L62.2825 68.3014C61.6865 68.8976 60.7526 68.9766 60.0649 68.4866C59.5551 68.1233 58.8803 68.0928 58.3453 68.4094C57.086 69.155 55.7314 69.7188 54.3195 70.0853C53.6263 70.2653 53.1422 70.8889 53.1422 71.602C53.1422 72.2641 52.6036 72.8027 51.9415 72.8027H48.7938C48.1317 72.8027 47.5931 72.264 47.5931 71.602C47.5931 70.8891 47.1089 70.2653 46.4158 70.0853C45.0038 69.7188 43.6493 69.1548 42.3896 68.4091C41.8566 68.0937 41.1814 68.1223 40.6704 68.4866C39.9828 68.9767 39.0499 68.8989 38.4527 68.3014L36.9706 66.8194C36.3732 66.2221 36.2956 65.2894 36.7854 64.6017C37.149 64.0916 37.1793 63.4166 36.8628 62.8822C36.1172 61.6229 35.5532 60.2685 35.1869 58.8565C35.007 58.1634 34.3832 57.6792 33.6702 57.6792C33.0081 57.6792 32.4694 57.1405 32.4694 56.4785V53.3309C32.4694 52.6687 33.0082 52.1301 33.6703 52.1301C34.3832 52.1301 35.007 51.646 35.1869 50.9528C35.5534 49.5407 36.1173 48.1863 36.8628 46.9273C37.1795 46.3928 37.1492 45.7178 36.7857 45.2077C36.2956 44.52 36.3735 43.5873 36.9707 42.9899L38.453 41.5078C39.0502 40.9104 39.9829 40.8328 40.6711 41.3232C41.181 41.6861 41.8557 41.7166 42.3902 41.4C43.6491 40.6544 45.0035 40.0906 46.4159 39.7241C47.1091 39.544 47.5932 38.9205 47.5932 38.2074C47.5932 37.5453 48.1318 37.0066 48.7939 37.0066H51.9416C52.6037 37.0066 53.1423 37.5454 53.1423 38.2074C53.1423 38.9203 53.6265 39.544 54.3196 39.7241C55.732 40.0906 57.0864 40.6545 58.3457 41.4003C58.88 41.7163 59.5547 41.6862 60.065 41.3228C60.4626 41.0396 60.9417 40.9474 61.3909 41.0341C61.4248 41.0432 61.4594 41.0506 61.4947 41.0565C61.7843 41.1313 62.0575 41.2825 62.2828 41.5078L63.7648 42.9897C64.3622 43.587 64.4399 44.5197 63.9499 45.2076C63.5864 45.7176 63.556 46.3926 63.8726 46.927C64.6182 48.1862 65.1822 49.5407 65.5487 50.9525C65.7284 51.6457 66.3521 52.13 67.0654 52.13C67.7275 52.13 68.2661 52.6688 68.2661 53.3307V56.4785H68.266Z" fill="#B3C134"/>
<path d="M50.3679 41.7437C44.2488 41.7437 38.9845 45.8952 37.5661 51.8394C37.4251 52.4295 37.7895 53.0222 38.3796 53.163C38.9695 53.3039 39.5623 52.9397 39.7033 52.3494C40.8847 47.3985 45.2701 43.9409 50.3679 43.9409C56.4133 43.9409 61.3315 48.8591 61.3315 54.9047C61.3315 60.9502 56.4133 65.8685 50.3679 65.8685C45.1351 65.8685 40.6099 62.1476 39.6081 57.0209C39.4917 56.4253 38.9143 56.0366 38.3191 56.1535C37.7237 56.2698 37.3352 56.8468 37.4517 57.4424C38.6546 63.598 44.0868 68.0657 50.3681 68.0657C57.625 68.0657 63.5289 62.1617 63.5289 54.9047C63.5289 47.6477 57.6249 41.7437 50.3679 41.7437Z" fill="#B3C134"/>
</g>
<defs>
<clipPath id="clip0">
<rect width="75" height="75" fill="white"/>
</clipPath>
</defs>
</svg>
