<svg width="20" height="20" viewBox="0 0 20 20" fill="none" xmlns="http://www.w3.org/2000/svg">
<mask id="path-1-outside-1" maskUnits="userSpaceOnUse" x="0" y="0" width="20" height="20" fill="black">
<rect fill="white" width="20" height="20"/>
<path fill-rule="evenodd" clip-rule="evenodd" d="M14.8418 11.6626C15.6128 11.9497 16.4177 12.1501 17.234 12.2575C18.2659 12.4027 19.0232 13.2937 18.9995 14.3308V16.9465C19.004 18.0736 18.0884 18.9952 16.958 19H16.9522C16.8898 19 16.8278 18.9973 16.766 18.9919C14.0351 18.6958 11.3792 17.7529 9.07933 16.2643C6.94483 14.9107 5.09771 13.0672 3.7399 10.9348C2.24438 8.63081 1.29938 5.96774 1.00867 3.23532C0.958843 2.68603 1.12507 2.15504 1.47575 1.73534C1.82648 1.31593 2.31996 1.05764 2.8651 1.00842C2.89887 1.0054 2.93284 1.00313 2.9669 1.00172C2.99393 1.00059 3.02101 1.00002 3.04809 1.00002H5.6728C6.69849 0.996115 7.576 1.74641 7.71972 2.75984C7.82771 3.57736 8.02842 4.38046 8.31612 5.15024C8.59659 5.89513 8.41539 6.74265 7.8544 7.30873L6.90549 8.25552C8.08059 10.24 9.74171 11.8978 11.7301 13.0702L12.6784 12.124C13.2466 11.5633 14.0951 11.3827 14.8418 11.6626ZM18.3995 14.32C18.4178 13.5856 17.8816 12.9547 17.1526 12.8521C16.2943 12.7393 15.445 12.5278 14.6314 12.2248C14.1028 12.0268 13.5019 12.1544 13.1008 12.55L11.9908 13.6576C11.8954 13.7527 11.7484 13.7731 11.6308 13.7062C9.39489 12.4375 7.54056 10.5871 6.26917 8.35513C6.20226 8.23753 6.22205 8.0899 6.31807 7.99421L7.42925 6.88541C7.82438 6.4867 7.95249 5.88789 7.75417 5.36111C7.45028 4.54841 7.23877 3.70061 7.12508 2.84111C7.02461 2.13254 6.4087 1.60003 5.6899 1.60003H3.04806C3.00488 1.60003 2.96195 1.60214 2.91907 1.60604C2.53326 1.64085 2.18436 1.82351 1.93626 2.12024C1.68818 2.41695 1.57086 2.79193 1.60565 3.17653C1.88617 5.81083 2.79877 8.38303 4.2445 10.6102C5.55671 12.6712 7.33992 14.4508 9.40273 15.7591C11.6266 17.1985 14.1923 18.1093 16.8245 18.3949C16.845 18.3968 16.867 18.3977 16.89 18.3984C16.9112 18.399 16.9334 18.3994 16.9559 18.4003C17.7548 18.397 18.4025 17.7454 18.3995 16.948V14.32Z"/>
<path d="M12.0993 1.30012C12.0993 1.13454 12.2337 1.00014 12.3993 1.00014C16.0386 1.00014 18.9993 3.96086 18.9993 7.60013C18.9993 7.76571 18.8653 7.90011 18.6994 7.90011C18.5338 7.90011 18.3994 7.76571 18.3994 7.60013C18.3994 4.29172 15.7078 1.60012 12.3993 1.60012C12.2337 1.60012 12.0993 1.46571 12.0993 1.30012Z"/>
<path d="M12.0993 3.10012C12.0993 2.93455 12.2337 2.80014 12.3993 2.80014C15.0462 2.80014 17.1993 4.95356 17.1993 7.60013C17.1993 7.76571 17.0652 7.90011 16.8993 7.90011C16.7338 7.90011 16.5994 7.76571 16.5994 7.60013C16.5994 5.2841 14.7153 3.40012 12.3993 3.40012C12.2337 3.40012 12.0993 3.26572 12.0993 3.10012Z"/>
<path d="M12.3993 4.60014C12.2337 4.60014 12.0993 4.73455 12.0993 4.90013C12.0993 5.06572 12.2337 5.20012 12.3993 5.20012C13.7227 5.20012 14.7994 6.27681 14.7994 7.60013C14.7994 7.76571 14.9337 7.90011 15.0993 7.90011C15.2652 7.90011 15.3993 7.76571 15.3993 7.60013C15.3993 5.94596 14.0535 4.60014 12.3993 4.60014Z"/>
</mask>
<path fill-rule="evenodd" clip-rule="evenodd" d="M14.8418 11.6626C15.6128 11.9497 16.4177 12.1501 17.234 12.2575C18.2659 12.4027 19.0232 13.2937 18.9995 14.3308V16.9465C19.004 18.0736 18.0884 18.9952 16.958 19H16.9522C16.8898 19 16.8278 18.9973 16.766 18.9919C14.0351 18.6958 11.3792 17.7529 9.07933 16.2643C6.94483 14.9107 5.09771 13.0672 3.7399 10.9348C2.24438 8.63081 1.29938 5.96774 1.00867 3.23532C0.958843 2.68603 1.12507 2.15504 1.47575 1.73534C1.82648 1.31593 2.31996 1.05764 2.8651 1.00842C2.89887 1.0054 2.93284 1.00313 2.9669 1.00172C2.99393 1.00059 3.02101 1.00002 3.04809 1.00002H5.6728C6.69849 0.996115 7.576 1.74641 7.71972 2.75984C7.82771 3.57736 8.02842 4.38046 8.31612 5.15024C8.59659 5.89513 8.41539 6.74265 7.8544 7.30873L6.90549 8.25552C8.08059 10.24 9.74171 11.8978 11.7301 13.0702L12.6784 12.124C13.2466 11.5633 14.0951 11.3827 14.8418 11.6626ZM18.3995 14.32C18.4178 13.5856 17.8816 12.9547 17.1526 12.8521C16.2943 12.7393 15.445 12.5278 14.6314 12.2248C14.1028 12.0268 13.5019 12.1544 13.1008 12.55L11.9908 13.6576C11.8954 13.7527 11.7484 13.7731 11.6308 13.7062C9.39489 12.4375 7.54056 10.5871 6.26917 8.35513C6.20226 8.23753 6.22205 8.0899 6.31807 7.99421L7.42925 6.88541C7.82438 6.4867 7.95249 5.88789 7.75417 5.36111C7.45028 4.54841 7.23877 3.70061 7.12508 2.84111C7.02461 2.13254 6.4087 1.60003 5.6899 1.60003H3.04806C3.00488 1.60003 2.96195 1.60214 2.91907 1.60604C2.53326 1.64085 2.18436 1.82351 1.93626 2.12024C1.68818 2.41695 1.57086 2.79193 1.60565 3.17653C1.88617 5.81083 2.79877 8.38303 4.2445 10.6102C5.55671 12.6712 7.33992 14.4508 9.40273 15.7591C11.6266 17.1985 14.1923 18.1093 16.8245 18.3949C16.845 18.3968 16.867 18.3977 16.89 18.3984C16.9112 18.399 16.9334 18.3994 16.9559 18.4003C17.7548 18.397 18.4025 17.7454 18.3995 16.948V14.32Z" fill="#B3C134"/>
<path d="M12.0993 1.30012C12.0993 1.13454 12.2337 1.00014 12.3993 1.00014C16.0386 1.00014 18.9993 3.96086 18.9993 7.60013C18.9993 7.76571 18.8653 7.90011 18.6994 7.90011C18.5338 7.90011 18.3994 7.76571 18.3994 7.60013C18.3994 4.29172 15.7078 1.60012 12.3993 1.60012C12.2337 1.60012 12.0993 1.46571 12.0993 1.30012Z" fill="#B3C134"/>
<path d="M12.0993 3.10012C12.0993 2.93455 12.2337 2.80014 12.3993 2.80014C15.0462 2.80014 17.1993 4.95356 17.1993 7.60013C17.1993 7.76571 17.0652 7.90011 16.8993 7.90011C16.7338 7.90011 16.5994 7.76571 16.5994 7.60013C16.5994 5.2841 14.7153 3.40012 12.3993 3.40012C12.2337 3.40012 12.0993 3.26572 12.0993 3.10012Z" fill="#B3C134"/>
<path d="M12.3993 4.60014C12.2337 4.60014 12.0993 4.73455 12.0993 4.90013C12.0993 5.06572 12.2337 5.20012 12.3993 5.20012C13.7227 5.20012 14.7994 6.27681 14.7994 7.60013C14.7994 7.76571 14.9337 7.90011 15.0993 7.90011C15.2652 7.90011 15.3993 7.76571 15.3993 7.60013C15.3993 5.94596 14.0535 4.60014 12.3993 4.60014Z" fill="#B3C134"/>
<path fill-rule="evenodd" clip-rule="evenodd" d="M14.8418 11.6626C15.6128 11.9497 16.4177 12.1501 17.234 12.2575C18.2659 12.4027 19.0232 13.2937 18.9995 14.3308V16.9465C19.004 18.0736 18.0884 18.9952 16.958 19H16.9522C16.8898 19 16.8278 18.9973 16.766 18.9919C14.0351 18.6958 11.3792 17.7529 9.07933 16.2643C6.94483 14.9107 5.09771 13.0672 3.7399 10.9348C2.24438 8.63081 1.29938 5.96774 1.00867 3.23532C0.958843 2.68603 1.12507 2.15504 1.47575 1.73534C1.82648 1.31593 2.31996 1.05764 2.8651 1.00842C2.89887 1.0054 2.93284 1.00313 2.9669 1.00172C2.99393 1.00059 3.02101 1.00002 3.04809 1.00002H5.6728C6.69849 0.996115 7.576 1.74641 7.71972 2.75984C7.82771 3.57736 8.02842 4.38046 8.31612 5.15024C8.59659 5.89513 8.41539 6.74265 7.8544 7.30873L6.90549 8.25552C8.08059 10.24 9.74171 11.8978 11.7301 13.0702L12.6784 12.124C13.2466 11.5633 14.0951 11.3827 14.8418 11.6626ZM18.3995 14.32C18.4178 13.5856 17.8816 12.9547 17.1526 12.8521C16.2943 12.7393 15.445 12.5278 14.6314 12.2248C14.1028 12.0268 13.5019 12.1544 13.1008 12.55L11.9908 13.6576C11.8954 13.7527 11.7484 13.7731 11.6308 13.7062C9.39489 12.4375 7.54056 10.5871 6.26917 8.35513C6.20226 8.23753 6.22205 8.0899 6.31807 7.99421L7.42925 6.88541C7.82438 6.4867 7.95249 5.88789 7.75417 5.36111C7.45028 4.54841 7.23877 3.70061 7.12508 2.84111C7.02461 2.13254 6.4087 1.60003 5.6899 1.60003H3.04806C3.00488 1.60003 2.96195 1.60214 2.91907 1.60604C2.53326 1.64085 2.18436 1.82351 1.93626 2.12024C1.68818 2.41695 1.57086 2.79193 1.60565 3.17653C1.88617 5.81083 2.79877 8.38303 4.2445 10.6102C5.55671 12.6712 7.33992 14.4508 9.40273 15.7591C11.6266 17.1985 14.1923 18.1093 16.8245 18.3949C16.845 18.3968 16.867 18.3977 16.89 18.3984C16.9112 18.399 16.9334 18.3994 16.9559 18.4003C17.7548 18.397 18.4025 17.7454 18.3995 16.948V14.32Z" stroke="#B3C134" stroke-width="0.8" mask="url(#path-1-outside-1)"/>
<path d="M12.0993 1.30012C12.0993 1.13454 12.2337 1.00014 12.3993 1.00014C16.0386 1.00014 18.9993 3.96086 18.9993 7.60013C18.9993 7.76571 18.8653 7.90011 18.6994 7.90011C18.5338 7.90011 18.3994 7.76571 18.3994 7.60013C18.3994 4.29172 15.7078 1.60012 12.3993 1.60012C12.2337 1.60012 12.0993 1.46571 12.0993 1.30012Z" stroke="#B3C134" stroke-width="0.8" mask="url(#path-1-outside-1)"/>
<path d="M12.0993 3.10012C12.0993 2.93455 12.2337 2.80014 12.3993 2.80014C15.0462 2.80014 17.1993 4.95356 17.1993 7.60013C17.1993 7.76571 17.0652 7.90011 16.8993 7.90011C16.7338 7.90011 16.5994 7.76571 16.5994 7.60013C16.5994 5.2841 14.7153 3.40012 12.3993 3.40012C12.2337 3.40012 12.0993 3.26572 12.0993 3.10012Z" stroke="#B3C134" stroke-width="0.8" mask="url(#path-1-outside-1)"/>
<path d="M12.3993 4.60014C12.2337 4.60014 12.0993 4.73455 12.0993 4.90013C12.0993 5.06572 12.2337 5.20012 12.3993 5.20012C13.7227 5.20012 14.7994 6.27681 14.7994 7.60013C14.7994 7.76571 14.9337 7.90011 15.0993 7.90011C15.2652 7.90011 15.3993 7.76571 15.3993 7.60013C15.3993 5.94596 14.0535 4.60014 12.3993 4.60014Z" stroke="#B3C134" stroke-width="0.8" mask="url(#path-1-outside-1)"/>
</svg>
