<svg width="15" height="19" viewBox="0 0 15 19" fill="none" xmlns="http://www.w3.org/2000/svg">
<path d="M13.1127 10.1752L13.1126 10.1752L7.95288 17.8205C7.83414 17.9965 7.62784 18.1 7.40976 18.1H7.40974H7.40972H7.40971H7.40969H7.40967H7.40966H7.40964H7.40962H7.40961H7.40959H7.40957H7.40956H7.40954H7.40952H7.4095H7.40949H7.40947H7.40945H7.40944H7.40942H7.4094H7.40939H7.40937H7.40935H7.40934H7.40932H7.4093H7.40929H7.40927H7.40925H7.40924H7.40922H7.4092H7.40918H7.40917H7.40915H7.40913H7.40912H7.4091H7.40908H7.40907H7.40905H7.40903H7.40902H7.409H7.40898H7.40897H7.40895H7.40893H7.40892H7.4089H7.40888H7.40886H7.40885H7.40883H7.40881H7.4088H7.40878H7.40876H7.40875H7.40873H7.40871H7.4087H7.40868H7.40866H7.40865H7.40863H7.40861H7.4086H7.40858H7.40856H7.40855H7.40853H7.40851H7.4085H7.40848H7.40846H7.40845H7.40843H7.40841H7.4084H7.40838H7.40836H7.40835H7.40833H7.40831H7.4083H7.40828H7.40826H7.40825H7.40823H7.40821H7.40819H7.40818H7.40816H7.40814H7.40813H7.40811H7.40809H7.40808H7.40806H7.40804H7.40803H7.40801H7.40799H7.40798H7.40796H7.40794H7.40793H7.40791H7.40789H7.40788H7.40786H7.40784H7.40783H7.40781H7.40779H7.40778H7.40776H7.40774H7.40773H7.40771H7.40769H7.40768H7.40766H7.40764H7.40763H7.40761H7.40759H7.40758H7.40756H7.40754H7.40753H7.40751H7.40749H7.40748H7.40746H7.40744H7.40743H7.40741H7.40739H7.40738H7.40736H7.40734H7.40733H7.40731H7.40729H7.40727H7.40726H7.40724H7.40722H7.40721H7.40719H7.40717H7.40716H7.40714H7.40712H7.40711H7.40709H7.40707H7.40706H7.40704H7.40702H7.40701H7.40699H7.40697H7.40696H7.40694H7.40692H7.40691H7.40689H7.40687H7.40686H7.40684H7.40682H7.40681H7.40679H7.40677H7.40676H7.40674H7.40672H7.40671H7.40669H7.40667H7.40666H7.40664H7.40662H7.40661H7.40659H7.40657H7.40656H7.40654H7.40652H7.4065H7.40649H7.40647H7.40645H7.40644H7.40642H7.4064H7.40639H7.40637H7.40635H7.40634H7.40632H7.4063H7.40629H7.40627H7.40625H7.40624H7.40622H7.4062H7.40619H7.40617H7.40615H7.40614H7.40612H7.4061H7.40608H7.40607H7.40605H7.40603H7.40602H7.406H7.40598H7.40597H7.40595H7.40593H7.40592H7.4059H7.40588H7.40587H7.40585H7.40583H7.40582H7.4058H7.40578H7.40576H7.40575H7.40573H7.40571H7.4057H7.40568H7.40566H7.40565H7.40563H7.40561H7.4056H7.40558H7.40556H7.40555H7.40553H7.40551H7.40549H7.40548L7.40546 18.1L7.40474 18.1C7.18479 18.0984 6.97793 17.9916 6.86125 17.8125C6.86125 17.8125 6.86125 17.8125 6.86124 17.8124L1.83303 10.0931L1.83298 10.0931C1.22284 9.15437 0.9 8.07668 0.9 6.97656C0.9 3.61812 3.86874 0.9 7.5 0.9C11.1313 0.9 14.1 3.61812 14.1 6.97656C14.1 8.11033 13.7584 9.21631 13.1127 10.1752ZM2.93035 9.47266L7.41943 16.3643L12.026 9.53864C12.5438 8.76971 12.8239 7.88377 12.8239 6.97656C12.8239 4.2933 10.4396 2.08945 7.5 2.08945C4.5605 2.08945 2.17972 4.29322 2.17972 6.97656C2.17972 7.8571 2.44139 8.72037 2.93035 9.47266Z" fill="#B3C134" stroke="#B3C134" stroke-width="0.2"/>
<path d="M7.5 3.88828C9.33921 3.88828 10.85 5.26586 10.85 6.97656C10.85 8.67607 9.36366 10.0648 7.5 10.0648C5.61308 10.0648 4.15 8.65726 4.15 6.97656C4.15 5.26586 5.66079 3.88828 7.5 3.88828ZM7.5 8.87539C8.65369 8.87539 9.57389 8.01494 9.57389 6.97656C9.57389 5.94104 8.64754 5.07773 7.5 5.07773C6.35268 5.07773 5.42972 5.94083 5.42972 6.97656C5.42972 8.00012 6.32864 8.87539 7.5 8.87539Z" fill="#B3C134" stroke="#B3C134" stroke-width="0.2"/>
</svg>
