<svg width="21" height="21" viewBox="0 0 21 21" fill="none" xmlns="http://www.w3.org/2000/svg">
<mask id="path-1-outside-1" maskUnits="userSpaceOnUse" x="0" y="0" width="21" height="21" fill="black">
<rect fill="white" width="21" height="21"/>
<path fill-rule="evenodd" clip-rule="evenodd" d="M12.673 11.0369C13.0968 10.6131 13.7866 10.6131 14.2104 11.0369L15.4597 12.2863C15.6651 12.4916 15.7781 12.7645 15.7781 13.055C15.7781 13.3454 15.6651 13.6183 15.4597 13.8236L14.4603 14.8231C14.1598 15.1236 13.7458 15.2742 13.2447 15.2742C12.7911 15.2742 12.2662 15.1508 11.6891 14.9035C10.6346 14.4516 9.47549 13.6244 8.42555 12.5745C7.37562 11.5246 6.54849 10.3655 6.09651 9.3109C5.57595 8.09628 5.60452 7.11217 6.17695 6.53973L7.17629 5.54038C7.60015 5.11652 8.28987 5.11652 8.71372 5.54038L9.96298 6.78964C10.387 7.2135 10.387 7.90321 9.96298 8.32706L9.4994 8.79065C10.1268 9.94176 11.0583 10.8733 12.2094 11.5005L12.673 11.0369ZM12.1282 13.8794C13.0065 14.2557 13.509 14.1985 13.6723 14.0351L14.6525 13.055L13.4417 11.8442L12.8614 12.4245C12.5991 12.687 12.2011 12.7502 11.8711 12.5819C10.3751 11.819 9.18107 10.6249 8.41816 9.12897C8.24986 8.79904 8.31321 8.40114 8.57559 8.13876L9.15585 7.55835L7.94515 6.34751L6.96494 7.32773C6.80158 7.49109 6.74432 7.99365 7.12078 8.87196C7.51826 9.79941 8.26145 10.8344 9.21354 11.7865C10.1656 12.7386 11.2008 13.4819 12.1282 13.8794Z"/>
<path fill-rule="evenodd" clip-rule="evenodd" d="M10.7861 1C13.2475 1 15.5609 1.95833 17.3013 3.69869C19.0417 5.43892 20 7.75275 20 10.214C20 12.6751 19.0415 14.9889 17.3013 16.7292C15.5609 18.4694 13.2473 19.4278 10.7861 19.4278C9.31845 19.4278 7.85988 19.0737 6.56032 18.4027L2.13589 19.9513C2.04225 19.9841 1.94629 20 1.85135 20C1.62985 20 1.41444 19.913 1.25078 19.7492C1.01681 19.5154 0.939558 19.1762 1.04871 18.8641L2.59744 14.4397C1.92644 13.1401 1.5723 11.6816 1.5723 10.2139C1.5723 7.75275 2.53062 5.43892 4.27084 3.69869C5.13176 2.83778 6.13719 2.1656 7.25946 1.70073C8.38158 1.23585 9.56879 1.00014 10.7861 1ZM10.7861 18.3134C12.9495 18.3134 14.9836 17.4711 16.5133 15.9412C18.0432 14.4114 18.8857 12.3774 18.8857 10.2139C18.8857 8.05034 18.0432 6.01643 16.5133 4.48668C14.9836 2.9568 12.9497 2.1143 10.7861 2.1143C8.62293 2.11458 6.58844 2.95708 5.05884 4.48668C3.5291 6.01643 2.6866 8.05049 2.6866 10.2139C2.6866 11.5375 3.01405 12.8522 3.63347 14.016C3.74567 14.2269 3.76509 14.4764 3.68666 14.7006L2.27969 18.7203L6.29939 17.3135C6.52336 17.2351 6.77283 17.2543 6.98389 17.3665C8.1479 17.9861 9.46268 18.3134 10.7861 18.3134Z"/>
</mask>
<path fill-rule="evenodd" clip-rule="evenodd" d="M12.673 11.0369C13.0968 10.6131 13.7866 10.6131 14.2104 11.0369L15.4597 12.2863C15.6651 12.4916 15.7781 12.7645 15.7781 13.055C15.7781 13.3454 15.6651 13.6183 15.4597 13.8236L14.4603 14.8231C14.1598 15.1236 13.7458 15.2742 13.2447 15.2742C12.7911 15.2742 12.2662 15.1508 11.6891 14.9035C10.6346 14.4516 9.47549 13.6244 8.42555 12.5745C7.37562 11.5246 6.54849 10.3655 6.09651 9.3109C5.57595 8.09628 5.60452 7.11217 6.17695 6.53973L7.17629 5.54038C7.60015 5.11652 8.28987 5.11652 8.71372 5.54038L9.96298 6.78964C10.387 7.2135 10.387 7.90321 9.96298 8.32706L9.4994 8.79065C10.1268 9.94176 11.0583 10.8733 12.2094 11.5005L12.673 11.0369ZM12.1282 13.8794C13.0065 14.2557 13.509 14.1985 13.6723 14.0351L14.6525 13.055L13.4417 11.8442L12.8614 12.4245C12.5991 12.687 12.2011 12.7502 11.8711 12.5819C10.3751 11.819 9.18107 10.6249 8.41816 9.12897C8.24986 8.79904 8.31321 8.40114 8.57559 8.13876L9.15585 7.55835L7.94515 6.34751L6.96494 7.32773C6.80158 7.49109 6.74432 7.99365 7.12078 8.87196C7.51826 9.79941 8.26145 10.8344 9.21354 11.7865C10.1656 12.7386 11.2008 13.4819 12.1282 13.8794Z" fill="#B3C134"/>
<path fill-rule="evenodd" clip-rule="evenodd" d="M10.7861 1C13.2475 1 15.5609 1.95833 17.3013 3.69869C19.0417 5.43892 20 7.75275 20 10.214C20 12.6751 19.0415 14.9889 17.3013 16.7292C15.5609 18.4694 13.2473 19.4278 10.7861 19.4278C9.31845 19.4278 7.85988 19.0737 6.56032 18.4027L2.13589 19.9513C2.04225 19.9841 1.94629 20 1.85135 20C1.62985 20 1.41444 19.913 1.25078 19.7492C1.01681 19.5154 0.939558 19.1762 1.04871 18.8641L2.59744 14.4397C1.92644 13.1401 1.5723 11.6816 1.5723 10.2139C1.5723 7.75275 2.53062 5.43892 4.27084 3.69869C5.13176 2.83778 6.13719 2.1656 7.25946 1.70073C8.38158 1.23585 9.56879 1.00014 10.7861 1ZM10.7861 18.3134C12.9495 18.3134 14.9836 17.4711 16.5133 15.9412C18.0432 14.4114 18.8857 12.3774 18.8857 10.2139C18.8857 8.05034 18.0432 6.01643 16.5133 4.48668C14.9836 2.9568 12.9497 2.1143 10.7861 2.1143C8.62293 2.11458 6.58844 2.95708 5.05884 4.48668C3.5291 6.01643 2.6866 8.05049 2.6866 10.2139C2.6866 11.5375 3.01405 12.8522 3.63347 14.016C3.74567 14.2269 3.76509 14.4764 3.68666 14.7006L2.27969 18.7203L6.29939 17.3135C6.52336 17.2351 6.77283 17.2543 6.98389 17.3665C8.1479 17.9861 9.46268 18.3134 10.7861 18.3134Z" fill="#B3C134"/>
<path fill-rule="evenodd" clip-rule="evenodd" d="M12.673 11.0369C13.0968 10.6131 13.7866 10.6131 14.2104 11.0369L15.4597 12.2863C15.6651 12.4916 15.7781 12.7645 15.7781 13.055C15.7781 13.3454 15.6651 13.6183 15.4597 13.8236L14.4603 14.8231C14.1598 15.1236 13.7458 15.2742 13.2447 15.2742C12.7911 15.2742 12.2662 15.1508 11.6891 14.9035C10.6346 14.4516 9.47549 13.6244 8.42555 12.5745C7.37562 11.5246 6.54849 10.3655 6.09651 9.3109C5.57595 8.09628 5.60452 7.11217 6.17695 6.53973L7.17629 5.54038C7.60015 5.11652 8.28987 5.11652 8.71372 5.54038L9.96298 6.78964C10.387 7.2135 10.387 7.90321 9.96298 8.32706L9.4994 8.79065C10.1268 9.94176 11.0583 10.8733 12.2094 11.5005L12.673 11.0369ZM12.1282 13.8794C13.0065 14.2557 13.509 14.1985 13.6723 14.0351L14.6525 13.055L13.4417 11.8442L12.8614 12.4245C12.5991 12.687 12.2011 12.7502 11.8711 12.5819C10.3751 11.819 9.18107 10.6249 8.41816 9.12897C8.24986 8.79904 8.31321 8.40114 8.57559 8.13876L9.15585 7.55835L7.94515 6.34751L6.96494 7.32773C6.80158 7.49109 6.74432 7.99365 7.12078 8.87196C7.51826 9.79941 8.26145 10.8344 9.21354 11.7865C10.1656 12.7386 11.2008 13.4819 12.1282 13.8794Z" stroke="#B3C134" stroke-width="0.4" mask="url(#path-1-outside-1)"/>
<path fill-rule="evenodd" clip-rule="evenodd" d="M10.7861 1C13.2475 1 15.5609 1.95833 17.3013 3.69869C19.0417 5.43892 20 7.75275 20 10.214C20 12.6751 19.0415 14.9889 17.3013 16.7292C15.5609 18.4694 13.2473 19.4278 10.7861 19.4278C9.31845 19.4278 7.85988 19.0737 6.56032 18.4027L2.13589 19.9513C2.04225 19.9841 1.94629 20 1.85135 20C1.62985 20 1.41444 19.913 1.25078 19.7492C1.01681 19.5154 0.939558 19.1762 1.04871 18.8641L2.59744 14.4397C1.92644 13.1401 1.5723 11.6816 1.5723 10.2139C1.5723 7.75275 2.53062 5.43892 4.27084 3.69869C5.13176 2.83778 6.13719 2.1656 7.25946 1.70073C8.38158 1.23585 9.56879 1.00014 10.7861 1ZM10.7861 18.3134C12.9495 18.3134 14.9836 17.4711 16.5133 15.9412C18.0432 14.4114 18.8857 12.3774 18.8857 10.2139C18.8857 8.05034 18.0432 6.01643 16.5133 4.48668C14.9836 2.9568 12.9497 2.1143 10.7861 2.1143C8.62293 2.11458 6.58844 2.95708 5.05884 4.48668C3.5291 6.01643 2.6866 8.05049 2.6866 10.2139C2.6866 11.5375 3.01405 12.8522 3.63347 14.016C3.74567 14.2269 3.76509 14.4764 3.68666 14.7006L2.27969 18.7203L6.29939 17.3135C6.52336 17.2351 6.77283 17.2543 6.98389 17.3665C8.1479 17.9861 9.46268 18.3134 10.7861 18.3134Z" stroke="#B3C134" stroke-width="0.4" mask="url(#path-1-outside-1)"/>
</svg>
